<?xml version="1.0" standalone="no"?>
<!DOCTYPE svg PUBLIC "-//W3C//DTD SVG 20010904//EN"
 "http://www.w3.org/TR/2001/REC-SVG-20010904/DTD/svg10.dtd">
<svg version="1.0" xmlns="http://www.w3.org/2000/svg"
 width="408.000000pt" height="368.000000pt" viewBox="0 0 408.000000 368.000000"
 preserveAspectRatio="xMidYMid meet">

<g transform="translate(0.000000,368.000000) scale(0.100000,-0.100000)"
fill="#000000" stroke="none">
<path d="M1410 3470 l0 -50 -50 0 -50 0 0 -100 0 -100 -50 0 -50 0 0 -100 0
-100 -50 0 -50 0 0 -150 0 -150 -50 0 -50 0 0 -100 0 -100 -100 0 -100 0 0
-50 0 -50 -150 0 -150 0 0 -50 0 -50 -50 0 -50 0 0 -50 0 -50 -50 0 -50 0 0
-50 0 -50 -50 0 -50 0 0 -700 0 -700 50 0 50 0 0 -50 0 -50 50 0 50 0 0 -50 0
-50 50 0 50 0 0 -50 0 -50 200 0 200 0 0 -50 0 -50 100 0 100 0 0 -50 0 -50
950 0 950 0 0 50 0 50 200 0 200 0 0 50 0 50 100 0 100 0 0 50 0 50 100 0 100
0 0 50 0 50 50 0 50 0 0 50 0 50 50 0 50 0 0 150 0 150 -150 0 -150 0 0 50 0
50 -50 0 -50 0 0 50 0 50 -50 0 -50 0 0 50 0 50 -100 0 -100 0 0 50 0 50 -100
0 -100 0 0 50 0 50 -50 0 -50 0 0 250 0 250 -50 0 -50 0 0 100 0 100 -50 0
-50 0 0 50 0 50 -50 0 -50 0 0 50 0 50 -100 0 -100 0 0 50 0 50 -50 0 -50 0 0
500 0 500 -50 0 -50 0 0 -50 0 -50 -50 0 -50 0 0 -50 0 -50 -50 0 -50 0 0
-100 0 -100 -50 0 -50 0 0 -50 0 -50 -50 0 -50 0 0 -50 0 -50 -50 0 -50 0 0
100 0 100 -50 0 -50 0 0 100 0 100 -50 0 -50 0 0 50 0 50 -50 0 -50 0 0 50 0
50 -50 0 -50 0 0 -50z m100 -150 l0 -100 50 0 50 0 0 -50 0 -50 50 0 50 0 0
-150 0 -150 50 0 50 0 0 -100 0 -100 50 0 50 0 0 -100 0 -100 250 0 250 0 0
-50 0 -50 100 0 100 0 0 -50 0 -50 50 0 50 0 0 -50 0 -50 50 0 50 0 0 -100 0
-100 50 0 50 0 0 -250 0 -250 50 0 50 0 0 -50 0 -50 100 0 100 0 0 -50 0 -50
100 0 100 0 0 -50 0 -50 50 0 50 0 0 -50 0 -50 50 0 50 0 0 -50 0 -50 50 0 50
0 0 -50 0 -50 50 0 50 0 0 -50 0 -50 -50 0 -50 0 0 -50 0 -50 -50 0 -50 0 0
-50 0 -50 -150 0 -150 0 0 -50 0 -50 -200 0 -200 0 0 -50 0 -50 -300 0 -300 0
0 50 0 50 -50 0 -50 0 0 50 0 50 50 0 50 0 0 50 0 50 50 0 50 0 0 350 0 350
-100 0 -100 0 0 50 0 50 -200 0 -200 0 0 50 0 50 -100 0 -100 0 0 50 0 50 -50
0 -50 0 0 50 0 50 -50 0 -50 0 0 100 0 100 50 0 50 0 0 100 0 100 50 0 50 0 0
50 0 50 50 0 50 0 0 100 0 100 -50 0 -50 0 0 -50 0 -50 -50 0 -50 0 0 -50 0
-50 -50 0 -50 0 0 -50 0 -50 -50 0 -50 0 0 200 0 200 50 0 50 0 0 200 0 200
50 0 50 0 0 100 0 100 -50 0 -50 0 0 -50 0 -50 -50 0 -50 0 0 -200 0 -200 -50
0 -50 0 0 -300 0 -300 -50 0 -50 0 0 300 0 300 50 0 50 0 0 200 0 200 50 0 50
0 0 100 0 100 50 0 50 0 0 100 0 100 50 0 50 0 0 -100z m800 -400 l0 -400
-150 0 -150 0 0 100 0 100 -50 0 -50 0 0 50 0 50 50 0 50 0 0 50 0 50 50 0 50
0 0 100 0 100 50 0 50 0 0 100 0 100 50 0 50 0 0 -400z m-1598 -1397 l3 -98
47 -3 47 -3 3 -47 3 -47 47 -3 48 -3 2 -297 3 -297 97 -3 97 -3 3 -47 3 -47
295 -2 295 -2 3 -51 3 -50 -100 0 -101 0 0 -50 0 -50 -250 0 -250 0 0 50 0 50
-50 0 -50 0 0 50 0 50 -50 0 -50 0 0 50 0 50 -50 0 -50 0 0 100 0 100 -50 0
-50 0 0 350 0 350 50 0 49 0 3 -97z m598 -53 l0 -50 200 0 200 0 0 -50 0 -50
200 0 200 0 0 -50 0 -50 100 0 100 0 0 -250 0 -250 -55 0 -55 0 0 195 0 194
-97 3 -98 3 -3 48 -3 47 -140 0 -139 0 0 -90 0 -90 39 0 40 0 3 48 3 47 55 0
55 0 0 -105 0 -105 -47 -3 -47 -3 -3 -47 -3 -47 -105 0 -105 0 -3 48 -3 47
-39 0 -39 0 -3 -47 -3 -48 -47 -3 -47 -3 -3 -47 -3 -47 -55 0 -55 0 0 105 0
105 47 3 47 3 3 47 3 47 47 3 47 3 3 47 3 47 48 3 47 3 0 89 0 90 -197 2 -198
3 -3 47 -3 47 -147 3 -147 3 -3 39 c-6 69 -14 66 208 66 l200 0 0 -50z"/>
<path d="M2110 1670 l0 -50 150 0 150 0 0 -50 0 -50 50 0 50 0 0 -150 0 -150
50 0 50 0 0 50 0 50 50 0 50 0 0 50 0 50 50 0 50 0 0 50 0 50 -50 0 -50 0 0
50 0 50 -100 0 -100 0 0 50 0 50 -200 0 -200 0 0 -50z"/>
<path d="M1620 970 l0 -40 40 0 40 0 0 40 0 40 -40 0 -40 0 0 -40z"/>
</g>
</svg>
